<?xml version="1.0" standalone="no"?>
<!DOCTYPE svg PUBLIC "-//W3C//DTD SVG 20010904//EN"
 "http://www.w3.org/TR/2001/REC-SVG-20010904/DTD/svg10.dtd">
<svg version="1.0" xmlns="http://www.w3.org/2000/svg"
 width="348.000000pt" height="348.000000pt" viewBox="0 0 348.000000 348.000000"
 preserveAspectRatio="xMidYMid meet">

<g transform="translate(0.000000,348.000000) scale(0.100000,-0.100000)"
fill="#ffa19e" stroke="none">
<path d="M918 3254 l-3 -117 -51 -13 c-28 -7 -77 -24 -108 -38 -32 -14 -62
-26 -65 -26 -6 0 -69 73 -132 152 -15 20 -19 17 -150 -93 -74 -62 -136 -114
-138 -115 -5 -5 13 -30 82 -112 l58 -70 -44 -69 c-25 -37 -52 -85 -60 -105 -9
-21 -22 -38 -29 -38 -7 1 -58 9 -113 20 -55 10 -100 18 -101 17 -4 -7 -63
-351 -60 -354 2 -2 43 -10 92 -18 144 -24 134 -20 134 -68 0 -23 8 -77 19
-119 13 -56 15 -80 7 -86 -6 -5 -49 -30 -96 -57 -47 -27 -86 -49 -88 -50 -2
-2 166 -297 176 -307 4 -4 49 17 100 47 51 30 96 55 100 55 5 0 26 -18 47 -40
22 -23 64 -57 93 -77 37 -26 51 -41 46 -52 -3 -9 -21 -58 -40 -109 l-33 -93
22 -8 c172 -63 318 -113 320 -110 2 2 19 49 39 104 l35 99 126 1 126 1 37
-103 c20 -57 40 -103 45 -103 14 0 314 112 323 120 5 5 -7 52 -29 110 -20 56
-33 105 -28 109 4 4 31 24 58 46 28 21 67 54 87 73 l37 35 97 -57 c53 -31 98
-55 100 -54 9 10 174 301 174 308 0 4 -43 32 -95 62 -81 45 -95 56 -90 73 3
11 13 66 23 123 12 72 21 103 32 106 8 3 59 12 112 21 62 11 95 21 93 29 -2 6
-16 81 -30 166 -14 85 -28 160 -30 166 -2 8 -31 6 -102 -7 -129 -24 -127 -24
-141 15 -7 18 -32 64 -57 102 -24 38 -45 73 -45 77 0 5 26 39 57 75 31 37 63
74 71 83 12 15 -1 29 -110 120 -68 56 -130 108 -139 116 -14 12 -24 4 -80 -63
-35 -43 -67 -82 -71 -88 -4 -6 -30 0 -70 17 -35 14 -89 33 -120 42 l-58 16 0
115 0 114 -180 0 -179 0 -3 -116z m321 -533 c332 -103 433 -521 187 -767 -277
-276 -746 -102 -783 291 -19 209 117 409 325 476 77 24 193 24 271 0z"/>
<path d="M2875 2854 c-10 -68 -13 -72 -58 -79 -23 -3 -54 -8 -69 -11 -24 -5
-30 0 -54 48 -14 29 -28 55 -30 57 -1 2 -43 -18 -93 -45 l-89 -48 29 -57 29
-58 -28 -28 c-15 -15 -35 -39 -44 -52 l-17 -24 -61 23 c-33 12 -62 21 -64 19
-7 -10 -66 -165 -66 -175 0 -7 25 -22 55 -34 l56 -23 -3 -70 -3 -70 -54 -19
c-30 -10 -56 -20 -59 -22 -2 -3 10 -47 28 -100 l31 -94 61 20 62 21 15 -24 c9
-13 29 -38 44 -55 l28 -32 -35 -55 -35 -55 84 -51 c46 -28 86 -51 88 -51 3 0
20 23 38 51 30 47 34 50 63 44 17 -4 48 -9 68 -12 34 -5 38 -9 43 -42 16 -95
15 -93 44 -88 14 3 54 9 87 12 86 10 87 11 77 83 l-10 61 36 15 c20 9 48 23
63 33 l28 17 45 -44 45 -45 70 75 69 75 -47 46 -47 45 26 65 26 64 60 -3 60
-4 7 47 c3 27 6 74 6 106 l0 59 -64 0 -63 0 -22 65 c-11 36 -21 67 -21 69 0 2
22 21 49 42 l50 37 -47 59 c-26 33 -54 69 -64 81 l-16 21 -48 -37 c-51 -40
-66 -44 -83 -24 -6 8 -29 22 -51 32 -22 10 -40 21 -40 24 0 3 6 32 14 64 10
43 11 59 2 62 -29 9 -160 35 -176 35 -13 0 -19 -11 -25 -46z m106 -342 c184
-96 187 -351 6 -456 -138 -81 -323 -7 -371 147 -33 105 -5 201 78 274 54 48
90 61 172 62 49 1 72 -5 115 -27z"/>
<path d="M2302 1672 l-114 -15 6 -56 c4 -31 9 -67 11 -81 5 -22 -3 -29 -75
-68 l-81 -42 -58 55 -58 55 -88 -97 -87 -98 61 -55 c54 -49 59 -57 49 -75 -7
-11 -22 -47 -34 -80 l-22 -60 -80 3 -79 2 -6 -82 c-4 -46 -7 -104 -7 -130 l0
-48 39 0 c77 0 131 -12 131 -29 0 -9 11 -46 24 -83 l23 -66 -63 -48 c-35 -27
-64 -50 -64 -51 0 -2 35 -47 77 -101 42 -53 78 -98 79 -100 1 -2 31 19 67 47
l64 51 40 -29 c22 -16 55 -37 74 -46 19 -10 35 -18 36 -19 1 -1 -7 -36 -17
-79 -13 -56 -15 -80 -6 -82 6 -3 56 -14 111 -25 55 -12 107 -23 116 -26 12 -3
19 12 33 75 l16 79 76 11 c41 6 81 11 89 11 7 0 31 -31 51 -70 l38 -69 105 56
c59 30 109 59 113 62 5 4 -8 36 -27 71 -19 36 -34 70 -34 75 0 6 26 38 57 71
l58 62 57 -23 c102 -42 89 -49 141 81 26 64 44 119 41 123 -4 3 -37 18 -73 32
-45 18 -67 32 -66 43 0 9 1 50 2 91 l2 74 73 22 c39 11 74 23 76 25 5 5 -72
244 -79 244 -4 0 -39 -11 -78 -24 l-72 -25 -22 32 c-12 18 -37 49 -55 70 l-34
38 22 37 c13 20 31 49 41 64 10 14 18 30 18 35 0 4 -48 38 -107 75 l-107 66
-42 -66 c-23 -37 -48 -66 -55 -65 -38 4 -136 26 -149 33 -10 4 -19 33 -25 81
-7 53 -14 74 -25 75 -8 1 -66 -6 -128 -14z m259 -474 c72 -34 126 -89 162
-166 27 -58 29 -70 25 -145 -5 -97 -33 -159 -100 -224 -67 -65 -126 -88 -228
-88 -73 1 -93 5 -143 30 -70 34 -120 88 -156 164 -21 45 -26 70 -26 133 0 67
5 84 35 144 41 80 102 135 181 164 74 28 175 23 250 -12z"/>
</g>
</svg>
