<?xml version="1.0" standalone="no"?>
<!DOCTYPE svg PUBLIC "-//W3C//DTD SVG 20010904//EN"
 "http://www.w3.org/TR/2001/REC-SVG-20010904/DTD/svg10.dtd">
<svg version="1.0" xmlns="http://www.w3.org/2000/svg"
 width="300.000000pt" height="104.000000pt" viewBox="0 0 300.000000 104.000000"
 preserveAspectRatio="xMidYMid meet">

<g transform="translate(0.000000,104.000000) scale(0.100000,-0.100000)"
fill="#ffa19e" stroke="none">
<path d="M585 997 c-12 -24 -26 -41 -35 -40 -8 1 -44 14 -80 28 -53 23 -74 26
-121 22 -135 -12 -323 -161 -345 -274 -7 -36 31 -128 86 -208 l31 -44 -31 -62
c-17 -33 -29 -63 -26 -66 3 -3 49 -16 103 -29 155 -38 231 -31 319 29 98 65
158 180 135 256 -13 44 -74 105 -127 127 -46 19 -77 6 -182 -80 -44 -36 -85
-66 -90 -66 -5 0 -27 25 -48 55 -31 46 -39 67 -42 115 -5 69 9 99 61 130 63
39 205 17 314 -47 l42 -24 16 38 c28 64 65 165 65 174 0 24 -27 3 -45 -34z
m-138 -376 c12 -10 33 -35 47 -56 67 -99 -5 -193 -131 -171 -57 10 -158 45
-179 61 -18 15 -16 18 41 72 114 106 176 133 222 94z"/>
<path d="M2564 1013 c-15 -3 -27 -19 -39 -51 -29 -75 -192 -418 -247 -518 -28
-52 -60 -97 -74 -104 -13 -8 -24 -19 -24 -27 0 -10 23 -13 99 -13 104 0 136
12 82 31 -45 16 -46 39 -9 131 l34 83 154 0 154 0 38 -93 c21 -52 35 -98 32
-104 -3 -5 -17 -13 -30 -18 -56 -22 -21 -30 121 -30 80 0 145 4 145 9 0 5 -15
18 -34 29 -29 17 -50 52 -144 244 -60 123 -131 271 -157 331 -49 109 -50 110
-101 100z m44 -286 c30 -64 51 -121 47 -127 -8 -12 -204 -13 -224 -1 -12 8 -4
31 44 130 32 67 64 120 69 118 6 -2 35 -56 64 -120z"/>
<path d="M1091 989 c-74 -13 -160 -61 -241 -136 -87 -81 -114 -133 -108 -212
8 -117 109 -255 223 -307 72 -33 164 -31 240 6 107 51 209 189 235 317 29 137
-25 254 -145 315 -40 21 -137 29 -204 17z m74 -106 c67 -22 137 -93 154 -156
18 -64 8 -164 -23 -233 -22 -47 -32 -58 -72 -75 -59 -27 -115 -20 -177 22
-155 102 -228 285 -153 383 54 72 165 96 271 59z"/>
<path d="M1532 991 c-9 -5 1 -13 32 -25 39 -15 46 -22 53 -54 13 -59 7 -550
-6 -566 -7 -8 -27 -17 -46 -20 -19 -4 -37 -11 -40 -15 -7 -12 246 -23 425 -19
l145 3 12 90 c16 128 16 140 -1 126 -8 -7 -17 -24 -21 -39 -9 -38 -50 -89 -86
-108 -32 -16 -159 -23 -195 -11 -12 4 -25 18 -28 30 -3 12 -6 137 -6 277 0
285 1 289 66 310 27 9 33 15 23 21 -18 11 -310 11 -327 0z"/>
<path d="M981 211 c-48 -49 -69 -86 -57 -99 4 -3 25 12 47 34 59 57 83 54 319
-44 206 -85 258 -101 328 -102 109 0 181 101 158 224 -11 57 -34 46 -28 -13 8
-90 -37 -127 -147 -119 -53 4 -107 21 -261 83 -138 55 -212 80 -252 83 l-57 4
-50 -51z"/>
</g>
</svg>
